<svg width="37" height="25" viewBox="0 0 37 25" fill="none" xmlns="http://www.w3.org/2000/svg">
<path d="M16.6528 20.842C16.7951 20.8422 16.936 20.8686 17.0674 20.9199C17.1988 20.9711 17.3182 21.0462 17.4187 21.1407C17.5192 21.2352 17.5988 21.3473 17.6531 21.4707C17.7074 21.5941 17.7352 21.7263 17.735 21.8598C17.7348 21.9933 17.7066 22.1254 17.6519 22.2486C17.5973 22.3719 17.5173 22.4838 17.4165 22.578C17.3157 22.6723 17.1961 22.747 17.0645 22.7979C16.933 22.8488 16.792 22.8749 16.6497 22.8747C16.3622 22.8743 16.0867 22.7669 15.8838 22.576C15.6808 22.3851 15.567 22.1265 15.5674 21.8569C15.5678 21.5873 15.6824 21.329 15.8859 21.1386C16.0895 20.9483 16.3653 20.8416 16.6528 20.842ZM33.6484 14.5572C33.506 14.5571 33.3651 14.5307 33.2337 14.4796C33.1022 14.4284 32.9828 14.3534 32.8822 14.259C32.7817 14.1646 32.7019 14.0525 32.6475 13.9291C32.5932 13.8058 32.5652 13.6736 32.5653 13.5401C32.5654 13.4066 32.5936 13.2745 32.6481 13.1512C32.7027 13.0279 32.7826 12.9159 32.8833 12.8216C32.984 12.7273 33.1036 12.6525 33.2351 12.6015C33.3666 12.5505 33.5076 12.5244 33.6499 12.5244C33.9373 12.5246 34.2129 12.6319 34.416 12.8226C34.6192 13.0134 34.7331 13.272 34.7329 13.5415C34.7327 13.8111 34.6184 14.0695 34.415 14.26C34.2116 14.4505 33.9358 14.5574 33.6484 14.5572ZM33.6484 10.3992C32.7597 10.3999 31.9077 10.7313 31.2793 11.3206C30.6509 11.9099 30.2975 12.7089 30.2967 13.5423C30.2967 13.8791 30.3569 14.2146 30.474 14.5413L19.4031 20.0685C19.0962 19.6505 18.6854 19.3088 18.2063 19.0728C17.7271 18.8368 17.194 18.7136 16.6528 18.7138C15.3747 18.7138 14.2107 19.4005 13.6465 20.4718L3.70101 15.5533C2.64957 15.0358 1.86331 13.4136 1.94656 11.936C1.98973 11.1654 2.2734 10.5669 2.70662 10.3355C2.98104 10.191 3.31096 10.2025 3.66247 10.3746L3.72722 10.4078C6.36351 11.709 14.9877 15.9697 15.3516 16.1273C15.9112 16.3716 16.2226 16.47 17.1785 16.0449L35.0066 7.35003C35.2687 7.2575 35.5739 7.02184 35.5739 6.66474C35.5739 6.17028 35.0266 5.9751 35.0266 5.9751C34.0122 5.51969 32.4536 4.83584 30.9334 4.16789C27.6836 2.74092 24.0005 1.12454 22.3832 0.32937C20.9865 -0.355925 19.8626 0.222383 19.6621 0.338045L19.2736 0.518767C11.9938 3.89464 2.25028 8.4199 1.69527 8.73653C0.70396 9.30327 0.0888252 10.4324 0.00865722 11.8334C-0.114678 14.0555 1.09247 16.3731 2.8207 17.2218L13.3381 22.308C13.454 23.0551 13.8526 23.7382 14.4612 24.2325C15.0698 24.7267 15.8477 24.9992 16.6528 25C17.532 24.9986 18.3756 24.6737 19.0021 24.0951C19.6286 23.5165 19.9879 22.7305 20.0029 21.9061L31.5871 16.0174C32.173 16.4483 32.9022 16.6839 33.6484 16.6839C34.537 16.6832 35.389 16.3518 36.0174 15.7625C36.6458 15.1732 36.9992 14.3742 37 13.5408C36.9992 12.7075 36.6458 11.9084 36.0174 11.3192C35.389 10.7299 34.537 10.3985 33.6484 10.3977" fill="#5A5A5A"/>
</svg>
